<svg width="672" height="102" viewBox="0 0 2048 962" fill="none" xmlns="http://www.w3.org/2000/svg">
    <path transform="translate(472,150)" d="m0 0h27l24 2 26 4 25 6 30 10 20 9 16 8 17 10 12 8 16 12 11 9 13 12 17 17 9 11 11 14 14 21 12 21 11 23 10 28 7 26 4 21 3 26 1 29v40l-1 1h-322v-92h225l-5-20-7-20-9-20-10-17-12-17-11-13-9-10-12-11-14-11-15-10-18-10-20-9-18-6-21-5-20-3-12-1h-25l-25 3-23 5-24 8-27 13-16 10-16 12-20 18-11 12-15 20-14 24-9 20-8 24-5 23-2 17-1 25 2 24 4 23 6 21 8 21 13 25 11 16 8 10 12 14 9 9 11 9 14 11 21 13 23 11 30 10 20 4 25 3 12 1v91h-26l-26-3-29-6-26-8-25-10-26-13-18-11-17-12-16-13-12-11-20-20-9-11-12-15-13-20-10-18-13-27-9-25-7-26-4-21-3-24-1-18v-17l1-20 4-30 7-30 10-30 9-20 8-16 8-14 12-18 12-16 13-15 13-14 8-7 11-10 17-13 18-12 15-9 15-8 23-10 33-11 27-6 21-3z" fill="#060708"/>
    <path transform="translate(1832,147)" d="m0 0h52l1 1v644l-2 1h-89l-1-1v-551l-2 1-31 4-26 5-27 7-29 10-25 11-21 11-21 13-19 14-11 9-12 11-24 24-9 11-14 18-15 23-12 21-8 15-11 25-11 29-10 34-8 36-5 32-3 34-1 150-1 1h-91l-1-3v-131l2-36 3-30 6-38 7-31 8-30 11-33 11-27 12-26 13-25 14-23 13-19 14-19 12-14 9-11 12-12 5-6 8-7 14-13 11-9 13-10 17-12 21-13 18-10 16-8 17-8 29-11 29-9 29-7 33-6 36-4 15-1z" fill="#060708"/>
    <path transform="translate(860,151)" d="m0 0h45l28 1 1 2-1 548 37-5 29-6 28-8 27-10 31-15 17-10 19-13 14-11 14-12 13-12 7-8 10-11 7-9 12-16 11-17 10-17 14-27 12-29 12-36 8-30 7-36 4-31 2-26 1-33v-120l3-1h62l27 1v157l-2 29-5 39-7 37-9 36-13 40-13 32-13 28-12 22-13 21-13 19-13 17-9 11-10 11-7 8-21 21-8 7-17 14-18 13-15 10-15 9-24 13-24 11-27 10-25 8-28 7-32 6-33 4-28 2h-75l-1-643 1-1z" fill="#060708"/>
</svg>
